<svg width="1284" height="644" viewBox="0 0 1284 644" fill="none" xmlns="http://www.w3.org/2000/svg">
<path d="M2 1H1V2V642V643H2H1282H1283V642V2V1H1282H2Z" fill="black" stroke="black" stroke-width="2"/>
<mask id="mask0_1663_7449" style="mask-type:luminance" maskUnits="userSpaceOnUse" x="1" y="2" width="1280" height="640">
<path d="M1281 2H1V642H1281V2Z" fill="white"/>
</mask>
<g mask="url(#mask0_1663_7449)">
<mask id="mask1_1663_7449" style="mask-type:luminance" maskUnits="userSpaceOnUse" x="-34" y="2" width="1724" height="985">
<path d="M1690 2H-34V987H1690V2Z" fill="white"/>
</mask>
<g mask="url(#mask1_1663_7449)">
<path d="M144.243 420.524C228.585 420.524 296.958 351.076 296.958 265.408C296.958 179.739 228.585 110.291 144.243 110.291C59.9007 110.291 -8.47217 179.739 -8.47217 265.408C-8.47217 351.076 59.9007 420.524 144.243 420.524Z" fill="#1878FF" stroke="#1878FF" stroke-width="2" stroke-miterlimit="10"/>
<path d="M1020.73 588.965C1105.07 588.965 1173.44 519.517 1173.44 433.849C1173.44 348.18 1105.07 278.732 1020.73 278.732C936.386 278.732 868.014 348.18 868.014 433.849C868.014 519.517 936.386 588.965 1020.73 588.965Z" fill="#1878FF" stroke="#1878FF" stroke-width="2" stroke-miterlimit="10"/>
<path d="M1252.45 88.0107C1283.43 88.0107 1308.54 62.503 1308.54 31.0376C1308.54 -0.427803 1283.43 -25.9355 1252.45 -25.9355C1221.47 -25.9355 1196.36 -0.427803 1196.36 31.0376C1196.36 62.503 1221.47 88.0107 1252.45 88.0107Z" fill="#1878FF" stroke="#1878FF" stroke-width="2" stroke-miterlimit="10"/>
<path d="M190.284 637.14C362.896 670.312 529.301 555.072 561.959 379.746" stroke="#1878FF" stroke-width="2" stroke-miterlimit="10"/>
<path d="M1066.53 31.315C1078.28 -31.7734 1037.45 -92.5935 975.34 -104.529" stroke="#1878FF" stroke-width="2" stroke-miterlimit="10"/>
<path d="M1066.53 31.3152C1078.28 -31.7732 1138.16 -73.2399 1200.27 -61.304" stroke="#1878FF" stroke-width="2" stroke-miterlimit="10"/>
<path d="M1199.81 -61.3848C1237.02 -54.2335 1261.48 -17.794 1254.44 20.0045" stroke="#1878FF" stroke-width="2" stroke-miterlimit="10"/>
<path d="M562.367 379.825C589.054 236.556 725.032 142.388 866.082 169.494" stroke="#1878FF" stroke-width="2" stroke-miterlimit="10"/>
<path d="M562.307 379.813C588.994 236.544 496.283 98.428 355.233 71.3223" stroke="#1878FF" stroke-width="2" stroke-miterlimit="10"/>
<path d="M355.22 71.3117C261.986 53.3947 200.704 -37.9011 218.344 -132.602" stroke="#1878FF" stroke-width="2" stroke-miterlimit="10"/>
<path d="M355.219 71.3197C261.985 53.4027 172.102 115.647 154.463 210.349" stroke="#1878FF" stroke-width="2" stroke-miterlimit="10"/>
<path d="M865.861 169.451C959.095 187.368 1020.38 278.664 1002.74 373.364" stroke="#1878FF" stroke-width="2" stroke-miterlimit="10"/>
<path d="M865.862 169.443C959.097 187.36 1048.98 125.115 1066.62 30.4141" stroke="#1878FF" stroke-width="2" stroke-miterlimit="10"/>
<path d="M1158.26 489.332C1282.32 529.208 1414.72 459.377 1453.98 333.361C1493.24 207.345 1424.49 72.8635 1300.42 32.9883" stroke="#1878FF" stroke-width="2" stroke-miterlimit="10"/>
<path d="M864.568 -109.047C712.86 -103.626 594.203 25.6866 599.541 179.781C604.878 333.875 732.189 454.398 883.896 448.977" stroke="#1878FF" stroke-width="2" stroke-miterlimit="10"/>
<path d="M161.996 651.822C176.874 651.822 188.935 639.571 188.935 624.46C188.935 609.348 176.874 597.098 161.996 597.098C147.119 597.098 135.058 609.348 135.058 624.46C135.058 639.571 147.119 651.822 161.996 651.822Z" fill="#1878FF" stroke="#1878FF" stroke-width="2" stroke-miterlimit="10"/>
</g>
</g>
<g clip-path="url(#clip0_1663_7449)">
<path d="M1030.75 421.271H1015V538.867H1030.75V421.271Z" fill="white"/>
<path d="M1089.38 495.968H1081.27C1064.52 495.968 1050.9 482.453 1050.9 465.838V421.234H1097.5C1114.25 421.234 1127.88 434.749 1127.88 451.365V463.029H1112.13V451.365C1112.13 443.367 1105.57 436.856 1097.5 436.856H1066.65V465.838C1066.65 473.835 1073.21 480.347 1081.27 480.347H1089.38V495.968ZM1129.45 508.635V494.6C1129.45 477.985 1115.83 464.47 1099.07 464.47H1089.38V480.091H1099.07C1107.14 480.091 1113.7 486.603 1113.7 494.6V508.635C1113.7 516.633 1107.14 523.144 1099.07 523.144H1066.65V496.99H1050.9V538.766H1099.07C1115.83 538.766 1129.45 525.251 1129.45 508.635Z" fill="white"/>
<path d="M1183.09 540.999H1180.47C1160.13 540.999 1143.57 524.575 1143.57 504.394V455.596C1143.57 435.414 1160.13 418.99 1180.47 418.99H1183.09C1203.44 418.99 1220 435.414 1220 455.596H1204.25C1204.25 444.032 1194.76 434.621 1183.1 434.621H1180.48C1168.82 434.621 1159.33 444.032 1159.33 455.596V504.394C1159.33 515.957 1168.82 525.369 1180.48 525.369H1183.1C1194.76 525.369 1204.25 515.957 1204.25 504.394H1220C1220 524.575 1203.44 540.999 1183.09 540.999Z" fill="white"/>
<path d="M1183.09 540.999H1180.47C1160.13 540.999 1143.57 524.575 1143.57 504.394V455.596C1143.57 435.414 1160.13 418.99 1180.47 418.99H1183.09C1203.44 418.99 1220 435.414 1220 455.596H1204.25C1204.25 444.032 1194.76 434.621 1183.1 434.621H1180.48C1168.82 434.621 1159.33 444.032 1159.33 455.596V504.394C1159.33 515.957 1168.82 525.369 1180.48 525.369H1183.1C1194.76 525.369 1204.25 515.957 1204.25 504.394H1220C1220 524.575 1203.44 540.999 1183.09 540.999Z" fill="white"/>
</g>
<path d="M44.568 371.368V366.728H79.032V371.368H64.76V413H59.736V371.368H44.568ZM85.6825 413V365.448H90.5145V384.776C91.0905 383.837 91.8585 382.963 92.8185 382.152C93.7998 381.341 94.9732 380.691 96.3385 380.2C97.7252 379.688 99.3038 379.432 101.075 379.432C103.251 379.432 105.203 379.827 106.931 380.616C108.68 381.405 110.067 382.525 111.091 383.976C112.115 385.427 112.627 387.133 112.627 389.096V413H107.635V390.216C107.635 388.125 106.92 386.504 105.491 385.352C104.061 384.179 102.173 383.592 99.8265 383.592C98.2265 383.592 96.7225 383.859 95.3145 384.392C93.9278 384.904 92.8078 385.683 91.9545 386.728C91.1012 387.752 90.6745 389.064 90.6745 390.664V413H85.6825ZM125.635 397.608C125.635 399.827 125.998 401.843 126.724 403.656C127.449 405.469 128.569 406.92 130.084 408.008C131.598 409.096 133.518 409.64 135.844 409.64C138.084 409.64 140.014 409.117 141.636 408.072C143.257 407.005 144.27 405.501 144.676 403.56H149.476C149.07 405.779 148.185 407.635 146.82 409.128C145.476 410.621 143.844 411.752 141.924 412.52C140.025 413.267 138.02 413.64 135.908 413.64C132.878 413.64 130.201 412.979 127.876 411.656C125.572 410.312 123.769 408.381 122.468 405.864C121.188 403.347 120.548 400.317 120.548 396.776C120.548 393.256 121.134 390.184 122.308 387.56C123.481 384.915 125.177 382.877 127.396 381.448C129.636 379.997 132.334 379.272 135.492 379.272C138.542 379.272 141.124 379.933 143.236 381.256C145.348 382.557 146.958 384.424 148.068 386.856C149.177 389.288 149.732 392.189 149.732 395.56V397.608H125.635ZM125.668 394.056H144.868C144.868 392.008 144.526 390.163 143.844 388.52C143.161 386.877 142.126 385.576 140.74 384.616C139.353 383.656 137.593 383.176 135.46 383.176C133.198 383.176 131.342 383.72 129.892 384.808C128.462 385.875 127.396 387.24 126.692 388.904C125.988 390.568 125.646 392.285 125.668 394.056ZM190.63 413.64C186.619 413.64 183.163 412.723 180.262 410.888C177.382 409.032 175.163 406.344 173.606 402.824C172.07 399.304 171.302 395.016 171.302 389.96C171.302 384.904 172.091 380.595 173.67 377.032C175.249 373.469 177.499 370.76 180.422 368.904C183.345 367.027 186.811 366.088 190.822 366.088C193.041 366.088 195.142 366.483 197.126 367.272C199.11 368.061 200.881 369.149 202.438 370.536C203.995 371.901 205.243 373.459 206.182 375.208C207.142 376.957 207.686 378.781 207.814 380.68H202.438C202.139 378.909 201.446 377.267 200.358 375.752C199.291 374.216 197.926 372.979 196.262 372.04C194.619 371.101 192.785 370.632 190.758 370.632C187.942 370.632 185.467 371.325 183.334 372.712C181.222 374.077 179.579 376.189 178.406 379.048C177.254 381.885 176.678 385.491 176.678 389.864C176.678 393.235 177.03 396.136 177.734 398.568C178.438 401 179.419 402.995 180.678 404.552C181.937 406.088 183.43 407.229 185.158 407.976C186.907 408.701 188.817 409.064 190.886 409.064C192.955 409.064 194.758 408.701 196.294 407.976C197.83 407.229 199.11 406.269 200.134 405.096C201.158 403.923 201.937 402.664 202.47 401.32C203.003 399.955 203.291 398.653 203.334 397.416L203.462 392.968H191.75V389.192L208.614 389.224V413H204.71V405.672C203.899 407.08 202.854 408.392 201.574 409.608C200.315 410.803 198.779 411.773 196.966 412.52C195.174 413.267 193.062 413.64 190.63 413.64ZM232.172 413.64C229.185 413.64 226.561 413 224.3 411.72C222.06 410.419 220.321 408.499 219.084 405.96C217.846 403.421 217.228 400.296 217.228 396.584C217.228 393.128 217.793 390.099 218.924 387.496C220.076 384.893 221.761 382.877 223.98 381.448C226.198 379.997 228.94 379.272 232.204 379.272C235.19 379.272 237.782 379.933 239.98 381.256C242.198 382.557 243.916 384.499 245.132 387.08C246.369 389.64 246.988 392.808 246.988 396.584C246.988 399.955 246.433 402.92 245.324 405.48C244.214 408.04 242.561 410.045 240.364 411.496C238.188 412.925 235.457 413.64 232.172 413.64ZM232.204 409.608C234.273 409.608 236.033 409.096 237.484 408.072C238.956 407.048 240.076 405.555 240.844 403.592C241.633 401.629 242.028 399.251 242.028 396.456C242.028 393.939 241.686 391.688 241.004 389.704C240.321 387.72 239.254 386.163 237.804 385.032C236.353 383.88 234.486 383.304 232.204 383.304C230.092 383.304 228.289 383.816 226.796 384.84C225.324 385.843 224.193 387.325 223.404 389.288C222.614 391.251 222.22 393.64 222.22 396.456C222.22 398.973 222.561 401.224 223.244 403.208C223.948 405.171 225.036 406.728 226.508 407.88C227.98 409.032 229.878 409.608 232.204 409.608ZM262.864 413.352C261.285 413.352 259.984 413.128 258.96 412.68C257.957 412.211 257.168 411.571 256.592 410.76C256.037 409.949 255.653 409.021 255.44 407.976C255.227 406.931 255.12 405.832 255.12 404.68V365.448H260.048V404.264C260.048 406.077 260.389 407.411 261.072 408.264C261.755 409.096 262.651 409.544 263.76 409.608L265.616 409.64V412.904C265.147 413.053 264.667 413.16 264.176 413.224C263.685 413.309 263.248 413.352 262.864 413.352ZM282.426 413.64C280.271 413.64 278.383 413.267 276.762 412.52C275.141 411.752 273.871 410.664 272.954 409.256C272.058 407.848 271.61 406.152 271.61 404.168C271.61 400.499 272.858 397.779 275.354 396.008C277.871 394.237 281.935 393.277 287.546 393.128L293.946 392.936V390.184C293.946 388.029 293.285 386.312 291.962 385.032C290.661 383.731 288.645 383.091 285.914 383.112C283.866 383.112 282.085 383.592 280.57 384.552C279.077 385.491 278.127 387.005 277.722 389.096H273.178C273.306 387.027 273.893 385.267 274.938 383.816C275.983 382.344 277.455 381.224 279.354 380.456C281.253 379.667 283.525 379.272 286.17 379.272C288.901 379.272 291.194 379.677 293.05 380.488C294.927 381.277 296.346 382.472 297.306 384.072C298.266 385.651 298.746 387.613 298.746 389.96V413H294.458L294.106 406.632C292.783 409.256 291.098 411.08 289.05 412.104C287.023 413.128 284.815 413.64 282.426 413.64ZM283.834 409.896C285.029 409.896 286.213 409.683 287.386 409.256C288.581 408.829 289.669 408.243 290.65 407.496C291.631 406.749 292.421 405.917 293.018 405C293.615 404.083 293.925 403.144 293.946 402.184V396.296L288.602 396.392C285.807 396.435 283.514 396.712 281.722 397.224C279.951 397.736 278.629 398.525 277.754 399.592C276.901 400.637 276.474 402.013 276.474 403.72C276.474 405.661 277.157 407.176 278.522 408.264C279.887 409.352 281.658 409.896 283.834 409.896ZM309.308 413V379.912H314.108V384.744C314.662 383.784 315.42 382.899 316.38 382.088C317.361 381.277 318.545 380.627 319.932 380.136C321.34 379.645 322.918 379.4 324.668 379.4C326.801 379.4 328.742 379.827 330.492 380.68C332.262 381.512 333.67 382.813 334.716 384.584C335.761 386.355 336.284 388.627 336.284 391.4V413H331.292V391.848C331.292 389.032 330.577 386.952 329.148 385.608C327.718 384.264 325.83 383.592 323.484 383.592C321.884 383.592 320.38 383.848 318.972 384.36C317.564 384.872 316.433 385.651 315.58 386.696C314.726 387.741 314.3 389.053 314.3 390.632V413H309.308ZM359.533 423.944C354.519 423.944 350.583 423.187 347.725 421.672C344.887 420.179 343.469 417.981 343.469 415.08C343.469 413.864 343.735 412.829 344.269 411.976C344.823 411.101 345.474 410.376 346.221 409.8C346.989 409.224 347.703 408.765 348.365 408.424C349.026 408.061 349.463 407.795 349.677 407.624C349.293 407.389 348.845 407.123 348.333 406.824C347.821 406.504 347.373 406.099 346.989 405.608C346.626 405.096 346.445 404.445 346.445 403.656C346.445 402.653 346.914 401.736 347.853 400.904C348.791 400.051 350.189 399.411 352.045 398.984C350.167 398.003 348.685 396.723 347.597 395.144C346.53 393.544 345.997 391.795 345.997 389.896C345.997 387.763 346.541 385.907 347.629 384.328C348.738 382.749 350.338 381.533 352.429 380.68C354.519 379.827 357.058 379.4 360.045 379.4C362.157 379.4 363.949 379.656 365.421 380.168C366.893 380.659 368.258 381.384 369.517 382.344C369.837 382.195 370.349 381.971 371.053 381.672C371.778 381.373 372.578 381.053 373.453 380.712C374.327 380.349 375.138 380.008 375.885 379.688C376.653 379.368 377.229 379.123 377.613 378.952V383.944L371.789 385.096C372.151 385.821 372.439 386.611 372.653 387.464C372.866 388.296 372.972 389.096 372.972 389.864C372.972 391.827 372.482 393.597 371.501 395.176C370.519 396.733 369.026 397.96 367.021 398.856C365.037 399.752 362.53 400.2 359.501 400.2C359.287 400.2 359.021 400.2 358.701 400.2C358.381 400.2 358.103 400.189 357.869 400.168C355.33 400.232 353.581 400.52 352.621 401.032C351.682 401.523 351.213 402.045 351.213 402.6C351.213 403.24 351.693 403.699 352.653 403.976C353.613 404.232 355.287 404.445 357.677 404.616C358.551 404.659 359.597 404.712 360.812 404.776C362.05 404.84 363.426 404.925 364.941 405.032C368.247 405.224 370.818 406.077 372.653 407.592C374.509 409.107 375.437 411.197 375.437 413.864C375.437 416.829 374.125 419.251 371.501 421.128C368.898 423.005 364.909 423.944 359.533 423.944ZM360.461 420.52C363.639 420.52 366.114 420.019 367.885 419.016C369.655 418.035 370.541 416.531 370.541 414.504C370.541 413.096 370.018 411.944 368.973 411.048C367.927 410.131 366.349 409.597 364.237 409.448L354.477 408.84C353.687 408.797 352.823 409.021 351.885 409.512C350.946 409.981 350.135 410.653 349.453 411.528C348.791 412.403 348.461 413.395 348.461 414.504C348.461 416.381 349.431 417.853 351.373 418.92C353.335 419.987 356.365 420.52 360.461 420.52ZM359.661 396.808C362.199 396.808 364.247 396.232 365.805 395.08C367.383 393.928 368.173 392.2 368.173 389.896C368.173 387.528 367.383 385.736 365.805 384.52C364.247 383.304 362.199 382.696 359.661 382.696C357.058 382.696 354.957 383.315 353.357 384.552C351.778 385.768 350.989 387.549 350.989 389.896C350.989 392.093 351.735 393.8 353.229 395.016C354.743 396.211 356.887 396.808 359.661 396.808ZM406.22 379.912V413H401.356V379.912H406.22ZM406.38 366.76V372.264H401.132V366.76H406.38ZM417.558 413V379.912H422.358V384.744C423.232 383.272 424.448 381.992 426.006 380.904C427.584 379.816 429.654 379.272 432.214 379.272C433.451 379.272 434.699 379.475 435.958 379.88C437.216 380.285 438.368 380.893 439.414 381.704C440.459 382.515 441.259 383.517 441.814 384.712C442.838 383.048 444.224 381.725 445.974 380.744C447.723 379.763 449.707 379.272 451.926 379.272C453.078 379.272 454.272 379.443 455.51 379.784C456.768 380.125 457.942 380.733 459.03 381.608C460.118 382.461 460.992 383.688 461.654 385.288C462.336 386.867 462.678 388.904 462.678 391.4V413H457.686V391.848C457.686 389.651 457.344 387.965 456.662 386.792C455.979 385.597 455.094 384.765 454.006 384.296C452.918 383.827 451.755 383.592 450.518 383.592C449.408 383.592 448.235 383.805 446.998 384.232C445.782 384.637 444.736 385.352 443.862 386.376C443.008 387.4 442.582 388.819 442.582 390.632V413H437.59V389.864C437.59 388.477 437.216 387.325 436.47 386.408C435.744 385.469 434.838 384.765 433.75 384.296C432.662 383.827 431.574 383.592 430.486 383.592C429.291 383.592 428.075 383.827 426.838 384.296C425.622 384.765 424.598 385.523 423.766 386.568C422.955 387.613 422.55 388.968 422.55 390.632V413H417.558ZM472.37 423.304V379.912H477.33L477.426 385.96C477.746 385.299 478.194 384.584 478.77 383.816C479.367 383.048 480.114 382.323 481.01 381.64C481.906 380.936 482.962 380.371 484.178 379.944C485.415 379.496 486.834 379.272 488.434 379.272C491.122 379.272 493.49 379.869 495.538 381.064C497.586 382.259 499.175 384.093 500.306 386.568C501.458 389.043 502.034 392.179 502.034 395.976C502.034 399.688 501.49 402.867 500.402 405.512C499.335 408.136 497.767 410.152 495.698 411.56C493.629 412.947 491.101 413.64 488.114 413.64C486.514 413.64 485.117 413.416 483.922 412.968C482.727 412.52 481.703 411.933 480.85 411.208C479.997 410.483 479.293 409.736 478.738 408.968C478.183 408.179 477.735 407.432 477.394 406.728V423.304H472.37ZM487.282 409.64C490.205 409.64 492.573 408.541 494.386 406.344C496.221 404.147 497.138 400.755 497.138 396.168C497.138 392.243 496.306 389.117 494.642 386.792C492.999 384.445 490.546 383.272 487.282 383.272C484.039 383.272 481.565 384.456 479.858 386.824C478.173 389.192 477.33 392.307 477.33 396.168C477.33 398.685 477.703 400.968 478.45 403.016C479.218 405.043 480.338 406.653 481.81 407.848C483.282 409.043 485.106 409.64 487.282 409.64ZM517.927 413.352C516.348 413.352 515.047 413.128 514.023 412.68C513.02 412.211 512.231 411.571 511.655 410.76C511.1 409.949 510.716 409.021 510.503 407.976C510.289 406.931 510.183 405.832 510.183 404.68V365.448H515.111V404.264C515.111 406.077 515.452 407.411 516.135 408.264C516.817 409.096 517.713 409.544 518.823 409.608L520.679 409.64V412.904C520.209 413.053 519.729 413.16 519.239 413.224C518.748 413.309 518.311 413.352 517.927 413.352ZM531.51 397.608C531.51 399.827 531.873 401.843 532.599 403.656C533.324 405.469 534.444 406.92 535.959 408.008C537.473 409.096 539.393 409.64 541.719 409.64C543.959 409.64 545.889 409.117 547.511 408.072C549.132 407.005 550.145 405.501 550.551 403.56H555.351C554.945 405.779 554.06 407.635 552.695 409.128C551.351 410.621 549.719 411.752 547.799 412.52C545.9 413.267 543.895 413.64 541.783 413.64C538.753 413.64 536.076 412.979 533.751 411.656C531.447 410.312 529.644 408.381 528.343 405.864C527.063 403.347 526.423 400.317 526.423 396.776C526.423 393.256 527.009 390.184 528.183 387.56C529.356 384.915 531.052 382.877 533.271 381.448C535.511 379.997 538.209 379.272 541.367 379.272C544.417 379.272 546.999 379.933 549.111 381.256C551.223 382.557 552.833 384.424 553.943 386.856C555.052 389.288 555.607 392.189 555.607 395.56V397.608H531.51ZM531.543 394.056H550.743C550.743 392.008 550.401 390.163 549.719 388.52C549.036 386.877 548.001 385.576 546.615 384.616C545.228 383.656 543.468 383.176 541.335 383.176C539.073 383.176 537.217 383.72 535.767 384.808C534.337 385.875 533.271 387.24 532.567 388.904C531.863 390.568 531.521 392.285 531.543 394.056ZM564.12 413V379.912H568.92V384.744C569.795 383.272 571.011 381.992 572.568 380.904C574.147 379.816 576.216 379.272 578.776 379.272C580.013 379.272 581.261 379.475 582.52 379.88C583.779 380.285 584.931 380.893 585.976 381.704C587.021 382.515 587.821 383.517 588.376 384.712C589.4 383.048 590.787 381.725 592.536 380.744C594.285 379.763 596.269 379.272 598.488 379.272C599.64 379.272 600.835 379.443 602.072 379.784C603.331 380.125 604.504 380.733 605.592 381.608C606.68 382.461 607.555 383.688 608.216 385.288C608.899 386.867 609.24 388.904 609.24 391.4V413H604.248V391.848C604.248 389.651 603.907 387.965 603.224 386.792C602.541 385.597 601.656 384.765 600.568 384.296C599.48 383.827 598.317 383.592 597.08 383.592C595.971 383.592 594.797 383.805 593.56 384.232C592.344 384.637 591.299 385.352 590.424 386.376C589.571 387.4 589.144 388.819 589.144 390.632V413H584.152V389.864C584.152 388.477 583.779 387.325 583.032 386.408C582.307 385.469 581.4 384.765 580.312 384.296C579.224 383.827 578.136 383.592 577.048 383.592C575.853 383.592 574.637 383.827 573.4 384.296C572.184 384.765 571.16 385.523 570.328 386.568C569.517 387.613 569.112 388.968 569.112 390.632V413H564.12ZM622.26 397.608C622.26 399.827 622.623 401.843 623.349 403.656C624.074 405.469 625.194 406.92 626.709 408.008C628.223 409.096 630.143 409.64 632.469 409.64C634.709 409.64 636.639 409.117 638.261 408.072C639.882 407.005 640.895 405.501 641.301 403.56H646.101C645.695 405.779 644.81 407.635 643.445 409.128C642.101 410.621 640.469 411.752 638.549 412.52C636.65 413.267 634.645 413.64 632.533 413.64C629.503 413.64 626.826 412.979 624.501 411.656C622.197 410.312 620.394 408.381 619.093 405.864C617.813 403.347 617.173 400.317 617.173 396.776C617.173 393.256 617.759 390.184 618.933 387.56C620.106 384.915 621.802 382.877 624.021 381.448C626.261 379.997 628.959 379.272 632.117 379.272C635.167 379.272 637.749 379.933 639.861 381.256C641.973 382.557 643.583 384.424 644.693 386.856C645.802 389.288 646.357 392.189 646.357 395.56V397.608H622.26ZM622.293 394.056H641.493C641.493 392.008 641.151 390.163 640.469 388.52C639.786 386.877 638.751 385.576 637.365 384.616C635.978 383.656 634.218 383.176 632.085 383.176C629.823 383.176 627.967 383.72 626.517 384.808C625.087 385.875 624.021 387.24 623.317 388.904C622.613 390.568 622.271 392.285 622.293 394.056ZM654.87 413V379.912H659.67V384.744C660.225 383.784 660.982 382.899 661.942 382.088C662.923 381.277 664.107 380.627 665.494 380.136C666.902 379.645 668.481 379.4 670.23 379.4C672.363 379.4 674.305 379.827 676.054 380.68C677.825 381.512 679.233 382.813 680.278 384.584C681.323 386.355 681.846 388.627 681.846 391.4V413H676.854V391.848C676.854 389.032 676.139 386.952 674.71 385.608C673.281 384.264 671.393 383.592 669.046 383.592C667.446 383.592 665.942 383.848 664.534 384.36C663.126 384.872 661.995 385.651 661.142 386.696C660.289 387.741 659.862 389.053 659.862 390.632V413H654.87ZM705.788 383.656H698.3V405C698.3 406.28 698.417 407.219 698.652 407.816C698.908 408.392 699.345 408.765 699.964 408.936C700.604 409.085 701.489 409.16 702.62 409.16H706.012V412.616C705.606 412.765 704.998 412.893 704.188 413C703.398 413.085 702.449 413.128 701.34 413.128C699.228 413.128 697.585 412.829 696.412 412.232C695.26 411.635 694.449 410.749 693.98 409.576C693.51 408.403 693.276 406.931 693.276 405.16V383.656H687.9V379.912H693.404L694.588 370.376H698.3V379.88H705.788V383.656ZM723.551 413.64C721.396 413.64 719.508 413.267 717.887 412.52C716.266 411.752 714.996 410.664 714.079 409.256C713.183 407.848 712.735 406.152 712.735 404.168C712.735 400.499 713.983 397.779 716.479 396.008C718.996 394.237 723.06 393.277 728.671 393.128L735.071 392.936V390.184C735.071 388.029 734.41 386.312 733.087 385.032C731.786 383.731 729.77 383.091 727.039 383.112C724.991 383.112 723.21 383.592 721.695 384.552C720.202 385.491 719.252 387.005 718.847 389.096H714.303C714.431 387.027 715.018 385.267 716.063 383.816C717.108 382.344 718.58 381.224 720.479 380.456C722.378 379.667 724.65 379.272 727.295 379.272C730.026 379.272 732.319 379.677 734.175 380.488C736.052 381.277 737.471 382.472 738.431 384.072C739.391 385.651 739.871 387.613 739.871 389.96V413H735.583L735.231 406.632C733.908 409.256 732.223 411.08 730.175 412.104C728.148 413.128 725.94 413.64 723.551 413.64ZM724.959 409.896C726.154 409.896 727.338 409.683 728.511 409.256C729.706 408.829 730.794 408.243 731.775 407.496C732.756 406.749 733.546 405.917 734.143 405C734.74 404.083 735.05 403.144 735.071 402.184V396.296L729.727 396.392C726.932 396.435 724.639 396.712 722.847 397.224C721.076 397.736 719.754 398.525 718.879 399.592C718.026 400.637 717.599 402.013 717.599 403.72C717.599 405.661 718.282 407.176 719.647 408.264C721.012 409.352 722.783 409.896 724.959 409.896ZM764.725 383.656H757.237V405C757.237 406.28 757.354 407.219 757.589 407.816C757.845 408.392 758.282 408.765 758.901 408.936C759.541 409.085 760.426 409.16 761.557 409.16H764.949V412.616C764.544 412.765 763.936 412.893 763.125 413C762.336 413.085 761.386 413.128 760.277 413.128C758.165 413.128 756.522 412.829 755.349 412.232C754.197 411.635 753.386 410.749 752.917 409.576C752.448 408.403 752.213 406.931 752.213 405.16V383.656H746.837V379.912H752.341L753.525 370.376H757.237V379.88H764.725V383.656ZM779.283 379.912V413H774.419V379.912H779.283ZM779.443 366.76V372.264H774.195V366.76H779.443ZM803.047 413.64C800.06 413.64 797.436 413 795.175 411.72C792.935 410.419 791.196 408.499 789.959 405.96C788.721 403.421 788.103 400.296 788.103 396.584C788.103 393.128 788.668 390.099 789.799 387.496C790.951 384.893 792.636 382.877 794.855 381.448C797.073 379.997 799.815 379.272 803.079 379.272C806.065 379.272 808.657 379.933 810.855 381.256C813.073 382.557 814.791 384.499 816.007 387.08C817.244 389.64 817.863 392.808 817.863 396.584C817.863 399.955 817.308 402.92 816.199 405.48C815.089 408.04 813.436 410.045 811.239 411.496C809.063 412.925 806.332 413.64 803.047 413.64ZM803.079 409.608C805.148 409.608 806.908 409.096 808.359 408.072C809.831 407.048 810.951 405.555 811.719 403.592C812.508 401.629 812.903 399.251 812.903 396.456C812.903 393.939 812.561 391.688 811.879 389.704C811.196 387.72 810.129 386.163 808.679 385.032C807.228 383.88 805.361 383.304 803.079 383.304C800.967 383.304 799.164 383.816 797.671 384.84C796.199 385.843 795.068 387.325 794.279 389.288C793.489 391.251 793.095 393.64 793.095 396.456C793.095 398.973 793.436 401.224 794.119 403.208C794.823 405.171 795.911 406.728 797.383 407.88C798.855 409.032 800.753 409.608 803.079 409.608ZM825.995 413V379.912H830.795V384.744C831.35 383.784 832.107 382.899 833.067 382.088C834.048 381.277 835.232 380.627 836.619 380.136C838.027 379.645 839.606 379.4 841.355 379.4C843.488 379.4 845.43 379.827 847.179 380.68C848.95 381.512 850.358 382.813 851.403 384.584C852.448 386.355 852.971 388.627 852.971 391.4V413H847.979V391.848C847.979 389.032 847.264 386.952 845.835 385.608C844.406 384.264 842.518 383.592 840.171 383.592C838.571 383.592 837.067 383.848 835.659 384.36C834.251 384.872 833.12 385.651 832.267 386.696C831.414 387.741 830.987 389.053 830.987 390.632V413H825.995ZM60.984 477.64C57.9973 477.64 55.3733 477 53.112 475.72C50.872 474.419 49.1333 472.499 47.896 469.96C46.6587 467.421 46.04 464.296 46.04 460.584C46.04 457.128 46.6053 454.099 47.736 451.496C48.888 448.893 50.5733 446.877 52.792 445.448C55.0107 443.997 57.752 443.272 61.016 443.272C64.0027 443.272 66.5947 443.933 68.792 445.256C71.0107 446.557 72.728 448.499 73.944 451.08C75.1813 453.64 75.8 456.808 75.8 460.584C75.8 463.955 75.2453 466.92 74.136 469.48C73.0267 472.04 71.3733 474.045 69.176 475.496C67 476.925 64.2693 477.64 60.984 477.64ZM61.016 473.608C63.0853 473.608 64.8453 473.096 66.296 472.072C67.768 471.048 68.888 469.555 69.656 467.592C70.4453 465.629 70.84 463.251 70.84 460.456C70.84 457.939 70.4987 455.688 69.816 453.704C69.1333 451.72 68.0667 450.163 66.616 449.032C65.1653 447.88 63.2987 447.304 61.016 447.304C58.904 447.304 57.1013 447.816 55.608 448.84C54.136 449.843 53.0053 451.325 52.216 453.288C51.4267 455.251 51.032 457.64 51.032 460.456C51.032 462.973 51.3733 465.224 52.056 467.208C52.76 469.171 53.848 470.728 55.32 471.88C56.792 473.032 58.6907 473.608 61.016 473.608ZM100.83 443.912V447.656H92.5095V477H87.5175V447.656H80.2855V443.912H87.5175V438.664C87.5175 436.061 88.1575 434.088 89.4375 432.744C90.7175 431.4 92.6695 430.728 95.2935 430.728H101.15V434.376H96.0615C94.6535 434.376 93.6935 434.76 93.1815 435.528C92.6908 436.275 92.4455 437.405 92.4455 438.92V443.912H100.83ZM139.725 447.656H132.237V469C132.237 470.28 132.354 471.219 132.589 471.816C132.845 472.392 133.282 472.765 133.901 472.936C134.541 473.085 135.426 473.16 136.557 473.16H139.949V476.616C139.544 476.765 138.936 476.893 138.125 477C137.336 477.085 136.386 477.128 135.277 477.128C133.165 477.128 131.522 476.829 130.349 476.232C129.197 475.635 128.386 474.749 127.917 473.576C127.448 472.403 127.213 470.931 127.213 469.16V447.656H121.837V443.912H127.341L128.525 434.376H132.237V443.88H139.725V447.656ZM148.683 477V429.448H153.515V448.776C154.091 447.837 154.859 446.963 155.819 446.152C156.8 445.341 157.973 444.691 159.339 444.2C160.725 443.688 162.304 443.432 164.075 443.432C166.251 443.432 168.203 443.827 169.931 444.616C171.68 445.405 173.067 446.525 174.091 447.976C175.115 449.427 175.627 451.133 175.627 453.096V477H170.635V454.216C170.635 452.125 169.92 450.504 168.491 449.352C167.061 448.179 165.173 447.592 162.827 447.592C161.227 447.592 159.723 447.859 158.315 448.392C156.928 448.904 155.808 449.683 154.955 450.728C154.101 451.752 153.675 453.064 153.675 454.664V477H148.683ZM188.635 461.608C188.635 463.827 188.998 465.843 189.724 467.656C190.449 469.469 191.569 470.92 193.084 472.008C194.598 473.096 196.518 473.64 198.844 473.64C201.084 473.64 203.014 473.117 204.636 472.072C206.257 471.005 207.27 469.501 207.676 467.56H212.476C212.07 469.779 211.185 471.635 209.82 473.128C208.476 474.621 206.844 475.752 204.924 476.52C203.025 477.267 201.02 477.64 198.908 477.64C195.878 477.64 193.201 476.979 190.876 475.656C188.572 474.312 186.769 472.381 185.468 469.864C184.188 467.347 183.548 464.317 183.548 460.776C183.548 457.256 184.134 454.184 185.308 451.56C186.481 448.915 188.177 446.877 190.396 445.448C192.636 443.997 195.334 443.272 198.492 443.272C201.542 443.272 204.124 443.933 206.236 445.256C208.348 446.557 209.958 448.424 211.068 450.856C212.177 453.288 212.732 456.189 212.732 459.56V461.608H188.635ZM188.668 458.056H207.868C207.868 456.008 207.526 454.163 206.844 452.52C206.161 450.877 205.126 449.576 203.74 448.616C202.353 447.656 200.593 447.176 198.46 447.176C196.198 447.176 194.342 447.72 192.892 448.808C191.462 449.875 190.396 451.24 189.692 452.904C188.988 454.568 188.646 456.285 188.668 458.056ZM237.118 430.728H242.11V477H237.118V430.728ZM253.558 477V443.912H258.358V448.744C258.912 447.784 259.67 446.899 260.63 446.088C261.611 445.277 262.795 444.627 264.182 444.136C265.59 443.645 267.168 443.4 268.918 443.4C271.051 443.4 272.992 443.827 274.742 444.68C276.512 445.512 277.92 446.813 278.966 448.584C280.011 450.355 280.534 452.627 280.534 455.4V477H275.542V455.848C275.542 453.032 274.827 450.952 273.398 449.608C271.968 448.264 270.08 447.592 267.734 447.592C266.134 447.592 264.63 447.848 263.222 448.36C261.814 448.872 260.683 449.651 259.83 450.696C258.976 451.741 258.55 453.053 258.55 454.632V477H253.558ZM304.475 447.656H296.987V469C296.987 470.28 297.104 471.219 297.339 471.816C297.595 472.392 298.032 472.765 298.651 472.936C299.291 473.085 300.176 473.16 301.307 473.16H304.699V476.616C304.294 476.765 303.686 476.893 302.875 477C302.086 477.085 301.136 477.128 300.027 477.128C297.915 477.128 296.272 476.829 295.099 476.232C293.947 475.635 293.136 474.749 292.667 473.576C292.198 472.403 291.963 470.931 291.963 469.16V447.656H286.587V443.912H292.091L293.275 434.376H296.987V443.88H304.475V447.656ZM315.948 461.608C315.948 463.827 316.311 465.843 317.036 467.656C317.761 469.469 318.881 470.92 320.396 472.008C321.911 473.096 323.831 473.64 326.156 473.64C328.396 473.64 330.327 473.117 331.948 472.072C333.569 471.005 334.583 469.501 334.988 467.56H339.788C339.383 469.779 338.497 471.635 337.132 473.128C335.788 474.621 334.156 475.752 332.236 476.52C330.337 477.267 328.332 477.64 326.22 477.64C323.191 477.64 320.513 476.979 318.188 475.656C315.884 474.312 314.081 472.381 312.78 469.864C311.5 467.347 310.86 464.317 310.86 460.776C310.86 457.256 311.447 454.184 312.62 451.56C313.793 448.915 315.489 446.877 317.708 445.448C319.948 443.997 322.647 443.272 325.804 443.272C328.855 443.272 331.436 443.933 333.548 445.256C335.66 446.557 337.271 448.424 338.38 450.856C339.489 453.288 340.044 456.189 340.044 459.56V461.608H315.948ZM315.98 458.056H335.18C335.18 456.008 334.839 454.163 334.156 452.52C333.473 450.877 332.439 449.576 331.052 448.616C329.665 447.656 327.905 447.176 325.772 447.176C323.511 447.176 321.655 447.72 320.204 448.808C318.775 449.875 317.708 451.24 317.004 452.904C316.3 454.568 315.959 456.285 315.98 458.056ZM348.558 477V443.912H353.294V449.896C353.848 448.339 354.627 447.08 355.63 446.12C356.654 445.139 357.795 444.424 359.054 443.976C360.334 443.507 361.624 443.272 362.926 443.272C363.459 443.272 363.982 443.315 364.494 443.4C365.006 443.464 365.411 443.581 365.71 443.752V448.616C365.368 448.445 364.91 448.328 364.334 448.264C363.779 448.2 363.31 448.168 362.926 448.168C361.752 448.104 360.611 448.189 359.502 448.424C358.392 448.659 357.379 449.075 356.462 449.672C355.566 450.269 354.851 451.069 354.318 452.072C353.806 453.075 353.55 454.301 353.55 455.752V477H348.558ZM384.279 458.408V462.472L368.375 462.504V458.44L384.279 458.408ZM394.618 477V430.728H408.986C414.49 430.728 418.682 431.763 421.562 433.832C424.463 435.88 425.914 438.856 425.914 442.76C425.914 445.256 425.253 447.389 423.93 449.16C422.629 450.931 420.378 452.349 417.178 453.416C418.97 453.779 420.495 454.312 421.754 455.016C423.013 455.72 424.026 456.552 424.794 457.512C425.583 458.472 426.149 459.549 426.49 460.744C426.853 461.939 427.034 463.219 427.034 464.584C427.034 468.744 425.541 471.859 422.554 473.928C419.567 475.976 415.173 477 409.37 477H394.618ZM399.61 472.68H409.242C413.402 472.68 416.57 472.029 418.746 470.728C420.922 469.405 422.01 467.325 422.01 464.488C422.01 462.397 421.466 460.712 420.378 459.432C419.311 458.152 417.871 457.224 416.058 456.648C414.245 456.072 412.229 455.784 410.01 455.784H399.61V472.68ZM399.61 451.4H410.01C411.29 451.4 412.57 451.283 413.85 451.048C415.151 450.792 416.346 450.365 417.434 449.768C418.522 449.171 419.397 448.36 420.058 447.336C420.719 446.291 421.05 444.979 421.05 443.4C421.05 440.499 419.941 438.376 417.722 437.032C415.525 435.667 412.655 434.984 409.114 434.984H399.61V451.4ZM443.739 477.352C442.16 477.352 440.859 477.128 439.835 476.68C438.832 476.211 438.043 475.571 437.467 474.76C436.912 473.949 436.528 473.021 436.315 471.976C436.102 470.931 435.995 469.832 435.995 468.68V429.448H440.923V468.264C440.923 470.077 441.264 471.411 441.947 472.264C442.63 473.096 443.526 473.544 444.635 473.608L446.491 473.64V476.904C446.022 477.053 445.542 477.16 445.051 477.224C444.56 477.309 444.123 477.352 443.739 477.352ZM466.859 477.64C463.872 477.64 461.248 477 458.987 475.72C456.747 474.419 455.008 472.499 453.771 469.96C452.534 467.421 451.915 464.296 451.915 460.584C451.915 457.128 452.48 454.099 453.611 451.496C454.763 448.893 456.448 446.877 458.667 445.448C460.886 443.997 463.627 443.272 466.891 443.272C469.878 443.272 472.47 443.933 474.667 445.256C476.886 446.557 478.603 448.499 479.819 451.08C481.056 453.64 481.675 456.808 481.675 460.584C481.675 463.955 481.12 466.92 480.011 469.48C478.902 472.04 477.248 474.045 475.051 475.496C472.875 476.925 470.144 477.64 466.859 477.64ZM466.891 473.608C468.96 473.608 470.72 473.096 472.171 472.072C473.643 471.048 474.763 469.555 475.531 467.592C476.32 465.629 476.715 463.251 476.715 460.456C476.715 457.939 476.374 455.688 475.691 453.704C475.008 451.72 473.942 450.163 472.491 449.032C471.04 447.88 469.174 447.304 466.891 447.304C464.779 447.304 462.976 447.816 461.483 448.84C460.011 449.843 458.88 451.325 458.091 453.288C457.302 455.251 456.907 457.64 456.907 460.456C456.907 462.973 457.248 465.224 457.931 467.208C458.635 469.171 459.723 470.728 461.195 471.88C462.667 473.032 464.566 473.608 466.891 473.608ZM502.736 443.272C505.018 443.272 507.088 443.699 508.944 444.552C510.8 445.405 512.336 446.632 513.552 448.232C514.768 449.811 515.546 451.72 515.888 453.96H511.312C511.098 452.723 510.618 451.613 509.872 450.632C509.125 449.629 508.144 448.84 506.928 448.264C505.733 447.688 504.346 447.4 502.767 447.4C499.76 447.4 497.306 448.477 495.408 450.632C493.53 452.765 492.592 456.061 492.592 460.52C492.592 464.509 493.445 467.709 495.152 470.12C496.88 472.509 499.44 473.704 502.832 473.704C504.41 473.704 505.797 473.416 506.992 472.84C508.208 472.243 509.189 471.453 509.936 470.472C510.682 469.469 511.152 468.371 511.344 467.176H515.856C515.536 469.352 514.757 471.229 513.52 472.808C512.282 474.365 510.736 475.56 508.88 476.392C507.045 477.224 504.997 477.64 502.736 477.64C499.792 477.64 497.189 477 494.928 475.72C492.666 474.44 490.896 472.531 489.616 469.992C488.357 467.453 487.728 464.307 487.728 460.552C487.728 457.117 488.304 454.109 489.456 451.528C490.608 448.925 492.293 446.899 494.512 445.448C496.752 443.997 499.493 443.272 502.736 443.272ZM552.564 477H547.156L536.404 459.752L529.268 467.08V477H524.308V429.448H529.268V461.224L545.748 443.912H551.636L539.732 456.36L552.564 477ZM571.611 443.272C573.893 443.272 575.963 443.699 577.819 444.552C579.675 445.405 581.211 446.632 582.427 448.232C583.643 449.811 584.421 451.72 584.763 453.96H580.187C579.973 452.723 579.493 451.613 578.747 450.632C578 449.629 577.019 448.84 575.803 448.264C574.608 447.688 573.221 447.4 571.642 447.4C568.635 447.4 566.181 448.477 564.283 450.632C562.405 452.765 561.467 456.061 561.467 460.52C561.467 464.509 562.32 467.709 564.027 470.12C565.755 472.509 568.315 473.704 571.707 473.704C573.285 473.704 574.672 473.416 575.867 472.84C577.083 472.243 578.064 471.453 578.811 470.472C579.557 469.469 580.027 468.371 580.219 467.176H584.731C584.411 469.352 583.632 471.229 582.395 472.808C581.157 474.365 579.611 475.56 577.755 476.392C575.92 477.224 573.872 477.64 571.611 477.64C568.667 477.64 566.064 477 563.803 475.72C561.541 474.44 559.771 472.531 558.491 469.992C557.232 467.453 556.603 464.307 556.603 460.552C556.603 457.117 557.179 454.109 558.331 451.528C559.483 448.925 561.168 446.899 563.387 445.448C565.627 443.997 568.368 443.272 571.611 443.272ZM593.183 477V429.448H598.015V448.776C598.591 447.837 599.359 446.963 600.319 446.152C601.3 445.341 602.473 444.691 603.839 444.2C605.225 443.688 606.804 443.432 608.575 443.432C610.751 443.432 612.703 443.827 614.431 444.616C616.18 445.405 617.567 446.525 618.591 447.976C619.615 449.427 620.127 451.133 620.127 453.096V477H615.135V454.216C615.135 452.125 614.42 450.504 612.991 449.352C611.561 448.179 609.673 447.592 607.327 447.592C605.727 447.592 604.223 447.859 602.815 448.392C601.428 448.904 600.308 449.683 599.455 450.728C598.601 451.752 598.175 453.064 598.175 454.664V477H593.183ZM638.801 477.64C636.646 477.64 634.758 477.267 633.137 476.52C631.516 475.752 630.246 474.664 629.329 473.256C628.433 471.848 627.985 470.152 627.985 468.168C627.985 464.499 629.233 461.779 631.729 460.008C634.246 458.237 638.31 457.277 643.921 457.128L650.321 456.936V454.184C650.321 452.029 649.66 450.312 648.337 449.032C647.036 447.731 645.02 447.091 642.289 447.112C640.241 447.112 638.46 447.592 636.945 448.552C635.452 449.491 634.502 451.005 634.097 453.096H629.553C629.681 451.027 630.268 449.267 631.313 447.816C632.358 446.344 633.83 445.224 635.729 444.456C637.628 443.667 639.9 443.272 642.545 443.272C645.276 443.272 647.569 443.677 649.425 444.488C651.302 445.277 652.721 446.472 653.681 448.072C654.641 449.651 655.121 451.613 655.121 453.96V477H650.833L650.481 470.632C649.158 473.256 647.473 475.08 645.425 476.104C643.398 477.128 641.19 477.64 638.801 477.64ZM640.209 473.896C641.404 473.896 642.588 473.683 643.761 473.256C644.956 472.829 646.044 472.243 647.025 471.496C648.006 470.749 648.796 469.917 649.393 469C649.99 468.083 650.3 467.144 650.321 466.184V460.296L644.977 460.392C642.182 460.435 639.889 460.712 638.097 461.224C636.326 461.736 635.004 462.525 634.129 463.592C633.276 464.637 632.849 466.013 632.849 467.72C632.849 469.661 633.532 471.176 634.897 472.264C636.262 473.352 638.033 473.896 640.209 473.896ZM671.283 443.912V477H666.419V443.912H671.283ZM671.443 430.76V436.264H666.195V430.76H671.443ZM682.62 477V443.912H687.42V448.744C687.975 447.784 688.732 446.899 689.692 446.088C690.673 445.277 691.857 444.627 693.244 444.136C694.652 443.645 696.231 443.4 697.98 443.4C700.113 443.4 702.055 443.827 703.804 444.68C705.575 445.512 706.983 446.813 708.028 448.584C709.073 450.355 709.596 452.627 709.596 455.4V477H704.604V455.848C704.604 453.032 703.889 450.952 702.46 449.608C701.031 448.264 699.143 447.592 696.796 447.592C695.196 447.592 693.692 447.848 692.284 448.36C690.876 448.872 689.745 449.651 688.892 450.696C688.039 451.741 687.612 453.053 687.612 454.632V477H682.62ZM65.88 494.088C69.08 494.088 71.9173 494.76 74.392 496.104C76.8667 497.448 78.8507 499.229 80.344 501.448C81.8373 503.667 82.7227 506.077 83 508.68H77.624C77.2613 506.824 76.5787 505.128 75.576 503.592C74.5947 502.056 73.2827 500.829 71.64 499.912C69.9973 498.995 68.0453 498.536 65.784 498.536C62.7973 498.536 60.28 499.229 58.232 500.616C56.2053 502.003 54.6693 504.125 53.624 506.984C52.6 509.821 52.088 513.437 52.088 517.832C52.088 524.445 53.24 529.32 55.544 532.456C57.8693 535.592 61.2827 537.16 65.784 537.16C68.0453 537.16 69.9973 536.691 71.64 535.752C73.2827 534.792 74.5947 533.533 75.576 531.976C76.5787 530.397 77.2613 528.68 77.624 526.824H83C82.7653 528.723 82.232 530.568 81.4 532.36C80.5893 534.131 79.4693 535.72 78.04 537.128C76.632 538.515 74.904 539.613 72.856 540.424C70.8293 541.235 68.504 541.64 65.88 541.64C61.7627 541.64 58.264 540.712 55.384 538.856C52.5253 536.979 50.3387 534.269 48.824 530.728C47.3093 527.165 46.552 522.845 46.552 517.768C46.552 512.691 47.2987 508.392 48.792 504.872C50.3067 501.352 52.504 498.675 55.384 496.84C58.264 495.005 61.7627 494.088 65.88 494.088ZM104.422 541.64C101.435 541.64 98.8108 541 96.5495 539.72C94.3095 538.419 92.5708 536.499 91.3335 533.96C90.0962 531.421 89.4775 528.296 89.4775 524.584C89.4775 521.128 90.0428 518.099 91.1735 515.496C92.3255 512.893 94.0108 510.877 96.2295 509.448C98.4482 507.997 101.19 507.272 104.454 507.272C107.44 507.272 110.032 507.933 112.23 509.256C114.448 510.557 116.166 512.499 117.382 515.08C118.619 517.64 119.238 520.808 119.238 524.584C119.238 527.955 118.683 530.92 117.574 533.48C116.464 536.04 114.811 538.045 112.614 539.496C110.438 540.925 107.707 541.64 104.422 541.64ZM104.454 537.608C106.523 537.608 108.283 537.096 109.734 536.072C111.206 535.048 112.326 533.555 113.094 531.592C113.883 529.629 114.278 527.251 114.278 524.456C114.278 521.939 113.936 519.688 113.254 517.704C112.571 515.72 111.504 514.163 110.054 513.032C108.603 511.88 106.736 511.304 104.454 511.304C102.342 511.304 100.539 511.816 99.0455 512.84C97.5735 513.843 96.4428 515.325 95.6535 517.288C94.8642 519.251 94.4695 521.64 94.4695 524.456C94.4695 526.973 94.8108 529.224 95.4935 531.208C96.1975 533.171 97.2855 534.728 98.7575 535.88C100.23 537.032 102.128 537.608 104.454 537.608ZM127.37 541V507.912H132.17V512.744C133.045 511.272 134.261 509.992 135.818 508.904C137.397 507.816 139.466 507.272 142.026 507.272C143.263 507.272 144.511 507.475 145.77 507.88C147.029 508.285 148.181 508.893 149.226 509.704C150.271 510.515 151.071 511.517 151.626 512.712C152.65 511.048 154.037 509.725 155.786 508.744C157.535 507.763 159.519 507.272 161.738 507.272C162.89 507.272 164.085 507.443 165.322 507.784C166.581 508.125 167.754 508.733 168.842 509.608C169.93 510.461 170.805 511.688 171.466 513.288C172.149 514.867 172.49 516.904 172.49 519.4V541H167.498V519.848C167.498 517.651 167.157 515.965 166.474 514.792C165.791 513.597 164.906 512.765 163.818 512.296C162.73 511.827 161.567 511.592 160.33 511.592C159.221 511.592 158.047 511.805 156.81 512.232C155.594 512.637 154.549 513.352 153.674 514.376C152.821 515.4 152.394 516.819 152.394 518.632V541H147.402V517.864C147.402 516.477 147.029 515.325 146.282 514.408C145.557 513.469 144.65 512.765 143.562 512.296C142.474 511.827 141.386 511.592 140.298 511.592C139.103 511.592 137.887 511.827 136.65 512.296C135.434 512.765 134.41 513.523 133.578 514.568C132.767 515.613 132.362 516.968 132.362 518.632V541H127.37ZM182.183 541V507.912H186.983V512.744C187.857 511.272 189.073 509.992 190.631 508.904C192.209 507.816 194.279 507.272 196.839 507.272C198.076 507.272 199.324 507.475 200.583 507.88C201.841 508.285 202.993 508.893 204.039 509.704C205.084 510.515 205.884 511.517 206.439 512.712C207.463 511.048 208.849 509.725 210.599 508.744C212.348 507.763 214.332 507.272 216.551 507.272C217.703 507.272 218.897 507.443 220.135 507.784C221.393 508.125 222.567 508.733 223.655 509.608C224.743 510.461 225.617 511.688 226.279 513.288C226.961 514.867 227.303 516.904 227.303 519.4V541H222.311V519.848C222.311 517.651 221.969 515.965 221.287 514.792C220.604 513.597 219.719 512.765 218.631 512.296C217.543 511.827 216.38 511.592 215.143 511.592C214.033 511.592 212.86 511.805 211.623 512.232C210.407 512.637 209.361 513.352 208.487 514.376C207.633 515.4 207.207 516.819 207.207 518.632V541H202.215V517.864C202.215 516.477 201.841 515.325 201.095 514.408C200.369 513.469 199.463 512.765 198.375 512.296C197.287 511.827 196.199 511.592 195.111 511.592C193.916 511.592 192.7 511.827 191.463 512.296C190.247 512.765 189.223 513.523 188.391 514.568C187.58 515.613 187.175 516.968 187.175 518.632V541H182.183ZM248.593 541.64C246.822 541.619 245.169 541.373 243.633 540.904C242.097 540.413 240.742 539.699 239.569 538.76C238.417 537.8 237.51 536.616 236.849 535.208C236.209 533.779 235.889 532.125 235.889 530.248V507.912H240.881V529.8C240.881 532.125 241.585 534.013 242.993 535.464C244.401 536.893 246.566 537.608 249.489 537.608C252.091 537.608 254.182 536.936 255.761 535.592C257.339 534.227 258.129 532.168 258.129 529.416V507.912H263.089V541H259.057L258.545 534.728C258.161 536.307 257.489 537.608 256.529 538.632C255.59 539.656 254.438 540.424 253.073 540.936C251.729 541.427 250.235 541.661 248.593 541.64ZM273.245 541V507.912H278.045V512.744C278.6 511.784 279.357 510.899 280.317 510.088C281.298 509.277 282.482 508.627 283.869 508.136C285.277 507.645 286.856 507.4 288.605 507.4C290.738 507.4 292.68 507.827 294.429 508.68C296.2 509.512 297.608 510.813 298.653 512.584C299.698 514.355 300.221 516.627 300.221 519.4V541H295.229V519.848C295.229 517.032 294.514 514.952 293.085 513.608C291.656 512.264 289.768 511.592 287.421 511.592C285.821 511.592 284.317 511.848 282.909 512.36C281.501 512.872 280.37 513.651 279.517 514.696C278.664 515.741 278.237 517.053 278.237 518.632V541H273.245ZM315.47 507.912V541H310.606V507.912H315.47ZM315.63 494.76V500.264H310.382V494.76H315.63ZM339.298 507.272C341.581 507.272 343.65 507.699 345.506 508.552C347.362 509.405 348.898 510.632 350.114 512.232C351.33 513.811 352.109 515.72 352.45 517.96H347.874C347.661 516.723 347.181 515.613 346.434 514.632C345.687 513.629 344.706 512.84 343.49 512.264C342.295 511.688 340.909 511.4 339.33 511.4C336.322 511.4 333.869 512.477 331.97 514.632C330.093 516.765 329.154 520.061 329.154 524.52C329.154 528.509 330.007 531.709 331.714 534.12C333.442 536.509 336.002 537.704 339.394 537.704C340.973 537.704 342.359 537.416 343.554 536.84C344.77 536.243 345.751 535.453 346.498 534.472C347.245 533.469 347.714 532.371 347.906 531.176H352.418C352.098 533.352 351.319 535.229 350.082 536.808C348.845 538.365 347.298 539.56 345.442 540.392C343.607 541.224 341.559 541.64 339.298 541.64C336.354 541.64 333.751 541 331.49 539.72C329.229 538.44 327.458 536.531 326.178 533.992C324.919 531.453 324.29 528.307 324.29 524.552C324.29 521.117 324.866 518.109 326.018 515.528C327.17 512.925 328.855 510.899 331.074 509.448C333.314 507.997 336.055 507.272 339.298 507.272ZM369.489 541.64C367.334 541.64 365.446 541.267 363.825 540.52C362.203 539.752 360.934 538.664 360.016 537.256C359.121 535.848 358.673 534.152 358.673 532.168C358.673 528.499 359.921 525.779 362.417 524.008C364.934 522.237 368.998 521.277 374.609 521.128L381.009 520.936V518.184C381.009 516.029 380.347 514.312 379.025 513.032C377.723 511.731 375.707 511.091 372.977 511.112C370.929 511.112 369.147 511.592 367.633 512.552C366.139 513.491 365.19 515.005 364.785 517.096H360.241C360.369 515.027 360.955 513.267 362.001 511.816C363.046 510.344 364.518 509.224 366.417 508.456C368.315 507.667 370.587 507.272 373.233 507.272C375.963 507.272 378.257 507.677 380.113 508.488C381.99 509.277 383.409 510.472 384.369 512.072C385.329 513.651 385.809 515.613 385.809 517.96V541H381.521L381.169 534.632C379.846 537.256 378.161 539.08 376.113 540.104C374.086 541.128 371.878 541.64 369.489 541.64ZM370.897 537.896C372.091 537.896 373.275 537.683 374.449 537.256C375.643 536.829 376.731 536.243 377.713 535.496C378.694 534.749 379.483 533.917 380.081 533C380.678 532.083 380.987 531.144 381.009 530.184V524.296L375.665 524.392C372.87 524.435 370.577 524.712 368.785 525.224C367.014 525.736 365.691 526.525 364.817 527.592C363.963 528.637 363.536 530.013 363.536 531.72C363.536 533.661 364.219 535.176 365.585 536.264C366.95 537.352 368.721 537.896 370.897 537.896ZM410.663 511.656H403.175V533C403.175 534.28 403.292 535.219 403.527 535.816C403.783 536.392 404.22 536.765 404.839 536.936C405.479 537.085 406.364 537.16 407.495 537.16H410.887V540.616C410.481 540.765 409.873 540.893 409.062 541C408.273 541.085 407.324 541.128 406.215 541.128C404.103 541.128 402.46 540.829 401.287 540.232C400.135 539.635 399.324 538.749 398.855 537.576C398.385 536.403 398.151 534.931 398.151 533.16V511.656H392.775V507.912H398.279L399.463 498.376H403.175V507.88H410.663V511.656ZM425.22 507.912V541H420.356V507.912H425.22ZM425.38 494.76V500.264H420.132V494.76H425.38ZM448.984 541.64C445.997 541.64 443.373 541 441.112 539.72C438.872 538.419 437.133 536.499 435.896 533.96C434.659 531.421 434.04 528.296 434.04 524.584C434.04 521.128 434.605 518.099 435.736 515.496C436.888 512.893 438.573 510.877 440.792 509.448C443.011 507.997 445.752 507.272 449.016 507.272C452.003 507.272 454.595 507.933 456.792 509.256C459.011 510.557 460.728 512.499 461.944 515.08C463.181 517.64 463.8 520.808 463.8 524.584C463.8 527.955 463.245 530.92 462.136 533.48C461.027 536.04 459.373 538.045 457.176 539.496C455 540.925 452.269 541.64 448.984 541.64ZM449.016 537.608C451.085 537.608 452.845 537.096 454.296 536.072C455.768 535.048 456.888 533.555 457.656 531.592C458.445 529.629 458.84 527.251 458.84 524.456C458.84 521.939 458.499 519.688 457.816 517.704C457.133 515.72 456.067 514.163 454.616 513.032C453.165 511.88 451.299 511.304 449.016 511.304C446.904 511.304 445.101 511.816 443.608 512.84C442.136 513.843 441.005 515.325 440.216 517.288C439.427 519.251 439.032 521.64 439.032 524.456C439.032 526.973 439.373 529.224 440.056 531.208C440.76 533.171 441.848 534.728 443.32 535.88C444.792 537.032 446.691 537.608 449.016 537.608ZM471.933 541V507.912H476.733V512.744C477.287 511.784 478.045 510.899 479.005 510.088C479.986 509.277 481.17 508.627 482.557 508.136C483.965 507.645 485.543 507.4 487.293 507.4C489.426 507.4 491.367 507.827 493.117 508.68C494.887 509.512 496.295 510.813 497.341 512.584C498.386 514.355 498.909 516.627 498.909 519.4V541H493.917V519.848C493.917 517.032 493.202 514.952 491.773 513.608C490.343 512.264 488.455 511.592 486.109 511.592C484.509 511.592 483.005 511.848 481.597 512.36C480.189 512.872 479.058 513.651 478.205 514.696C477.351 515.741 476.925 517.053 476.925 518.632V541H471.933ZM524.868 541V494.728H540.132C543.417 494.728 546.34 495.283 548.9 496.392C551.481 497.48 553.497 499.101 554.948 501.256C556.42 503.389 557.156 506.035 557.156 509.192C557.156 512.285 556.463 514.92 555.076 517.096C553.689 519.251 551.769 520.893 549.316 522.024C546.884 523.155 544.057 523.72 540.836 523.72H530.052V541H524.868ZM530.02 519.336H540.74C544.132 519.336 546.884 518.408 548.996 516.552C551.129 514.696 552.196 512.147 552.196 508.904C552.196 505.619 551.108 503.155 548.932 501.512C546.756 499.869 543.908 499.048 540.388 499.048H530.02V519.336ZM564.058 541V507.912H568.794V513.896C569.348 512.339 570.127 511.08 571.13 510.12C572.154 509.139 573.295 508.424 574.554 507.976C575.834 507.507 577.124 507.272 578.426 507.272C578.959 507.272 579.482 507.315 579.994 507.4C580.506 507.464 580.911 507.581 581.21 507.752V512.616C580.868 512.445 580.41 512.328 579.834 512.264C579.279 512.2 578.81 512.168 578.426 512.168C577.252 512.104 576.111 512.189 575.002 512.424C573.892 512.659 572.879 513.075 571.962 513.672C571.066 514.269 570.351 515.069 569.818 516.072C569.306 517.075 569.05 518.301 569.05 519.752V541H564.058ZM600.547 541.64C597.56 541.64 594.936 541 592.675 539.72C590.435 538.419 588.696 536.499 587.459 533.96C586.221 531.421 585.603 528.296 585.603 524.584C585.603 521.128 586.168 518.099 587.299 515.496C588.451 512.893 590.136 510.877 592.355 509.448C594.573 507.997 597.315 507.272 600.579 507.272C603.565 507.272 606.157 507.933 608.355 509.256C610.573 510.557 612.291 512.499 613.507 515.08C614.744 517.64 615.363 520.808 615.363 524.584C615.363 527.955 614.808 530.92 613.699 533.48C612.589 536.04 610.936 538.045 608.739 539.496C606.563 540.925 603.832 541.64 600.547 541.64ZM600.579 537.608C602.648 537.608 604.408 537.096 605.859 536.072C607.331 535.048 608.451 533.555 609.219 531.592C610.008 529.629 610.403 527.251 610.403 524.456C610.403 521.939 610.061 519.688 609.379 517.704C608.696 515.72 607.629 514.163 606.179 513.032C604.728 511.88 602.861 511.304 600.579 511.304C598.467 511.304 596.664 511.816 595.171 512.84C593.699 513.843 592.568 515.325 591.779 517.288C590.989 519.251 590.595 521.64 590.595 524.456C590.595 526.973 590.936 529.224 591.619 531.208C592.323 533.171 593.411 534.728 594.883 535.88C596.355 537.032 598.253 537.608 600.579 537.608ZM638.35 511.656H630.862V533C630.862 534.28 630.979 535.219 631.214 535.816C631.47 536.392 631.907 536.765 632.526 536.936C633.166 537.085 634.051 537.16 635.182 537.16H638.574V540.616C638.169 540.765 637.561 540.893 636.75 541C635.961 541.085 635.011 541.128 633.902 541.128C631.79 541.128 630.147 540.829 628.974 540.232C627.822 539.635 627.011 538.749 626.542 537.576C626.073 536.403 625.838 534.931 625.838 533.16V511.656H620.462V507.912H625.966L627.15 498.376H630.862V507.88H638.35V511.656ZM659.359 541.64C656.372 541.64 653.748 541 651.487 539.72C649.247 538.419 647.508 536.499 646.271 533.96C645.034 531.421 644.415 528.296 644.415 524.584C644.415 521.128 644.98 518.099 646.111 515.496C647.263 512.893 648.948 510.877 651.167 509.448C653.386 507.997 656.127 507.272 659.391 507.272C662.378 507.272 664.97 507.933 667.167 509.256C669.386 510.557 671.103 512.499 672.319 515.08C673.556 517.64 674.175 520.808 674.175 524.584C674.175 527.955 673.62 530.92 672.511 533.48C671.402 536.04 669.748 538.045 667.551 539.496C665.375 540.925 662.644 541.64 659.359 541.64ZM659.391 537.608C661.46 537.608 663.22 537.096 664.671 536.072C666.143 535.048 667.263 533.555 668.031 531.592C668.82 529.629 669.215 527.251 669.215 524.456C669.215 521.939 668.874 519.688 668.191 517.704C667.508 515.72 666.442 514.163 664.991 513.032C663.54 511.88 661.674 511.304 659.391 511.304C657.279 511.304 655.476 511.816 653.983 512.84C652.511 513.843 651.38 515.325 650.591 517.288C649.802 519.251 649.407 521.64 649.407 524.456C649.407 526.973 649.748 529.224 650.431 531.208C651.135 533.171 652.223 534.728 653.695 535.88C655.167 537.032 657.066 537.608 659.391 537.608ZM695.236 507.272C697.518 507.272 699.588 507.699 701.444 508.552C703.3 509.405 704.836 510.632 706.052 512.232C707.268 513.811 708.046 515.72 708.388 517.96H703.812C703.598 516.723 703.118 515.613 702.372 514.632C701.625 513.629 700.644 512.84 699.428 512.264C698.233 511.688 696.846 511.4 695.267 511.4C692.26 511.4 689.806 512.477 687.908 514.632C686.03 516.765 685.092 520.061 685.092 524.52C685.092 528.509 685.945 531.709 687.652 534.12C689.38 536.509 691.94 537.704 695.332 537.704C696.91 537.704 698.297 537.416 699.492 536.84C700.708 536.243 701.689 535.453 702.436 534.472C703.182 533.469 703.652 532.371 703.844 531.176H708.356C708.036 533.352 707.257 535.229 706.02 536.808C704.782 538.365 703.236 539.56 701.38 540.392C699.545 541.224 697.497 541.64 695.236 541.64C692.292 541.64 689.689 541 687.428 539.72C685.166 538.44 683.396 536.531 682.116 533.992C680.857 531.453 680.228 528.307 680.228 524.552C680.228 521.117 680.804 518.109 681.956 515.528C683.108 512.925 684.793 510.899 687.012 509.448C689.252 507.997 691.993 507.272 695.236 507.272ZM729.672 541.64C726.685 541.64 724.061 541 721.8 539.72C719.56 538.419 717.821 536.499 716.584 533.96C715.346 531.421 714.728 528.296 714.728 524.584C714.728 521.128 715.293 518.099 716.424 515.496C717.576 512.893 719.261 510.877 721.48 509.448C723.698 507.997 726.44 507.272 729.704 507.272C732.69 507.272 735.282 507.933 737.48 509.256C739.698 510.557 741.416 512.499 742.632 515.08C743.869 517.64 744.488 520.808 744.488 524.584C744.488 527.955 743.933 530.92 742.824 533.48C741.714 536.04 740.061 538.045 737.864 539.496C735.688 540.925 732.957 541.64 729.672 541.64ZM729.704 537.608C731.773 537.608 733.533 537.096 734.984 536.072C736.456 535.048 737.576 533.555 738.344 531.592C739.133 529.629 739.528 527.251 739.528 524.456C739.528 521.939 739.186 519.688 738.504 517.704C737.821 515.72 736.754 514.163 735.304 513.032C733.853 511.88 731.986 511.304 729.704 511.304C727.592 511.304 725.789 511.816 724.296 512.84C722.824 513.843 721.693 515.325 720.904 517.288C720.114 519.251 719.72 521.64 719.72 524.456C719.72 526.973 720.061 529.224 720.744 531.208C721.448 533.171 722.536 534.728 724.008 535.88C725.48 537.032 727.378 537.608 729.704 537.608ZM760.364 541.352C758.785 541.352 757.484 541.128 756.46 540.68C755.457 540.211 754.668 539.571 754.092 538.76C753.537 537.949 753.153 537.021 752.94 535.976C752.727 534.931 752.62 533.832 752.62 532.68V493.448H757.548V532.264C757.548 534.077 757.889 535.411 758.572 536.264C759.255 537.096 760.151 537.544 761.26 537.608L763.116 537.64V540.904C762.647 541.053 762.167 541.16 761.676 541.224C761.185 541.309 760.748 541.352 760.364 541.352Z" fill="white"/>
<path d="M77.5 172.6V276H62.3V172.6H77.5ZM78 131.5V148.7H61.6V131.5H78ZM152.33 278C145.996 278 140.663 277.167 136.33 275.5C132.063 273.767 128.596 271.633 125.93 269.1C123.263 266.567 121.23 264 119.83 261.4C118.43 258.8 117.43 256.6 116.83 254.8L115.23 276H102.93V127.4H118.73V189.6C119.463 188.067 120.696 186.233 122.43 184.1C124.163 181.967 126.43 179.867 129.23 177.8C132.03 175.733 135.43 174.033 139.43 172.7C143.43 171.3 148.063 170.6 153.33 170.6C166.263 170.6 176.596 175.067 184.33 184C192.063 192.933 195.93 206.233 195.93 223.9C195.93 234.767 194.296 244.267 191.03 252.4C187.83 260.467 182.996 266.767 176.53 271.3C170.13 275.767 162.063 278 152.33 278ZM149.83 265.6C158.83 265.6 166.096 262.167 171.63 255.3C177.23 248.433 180.03 237.633 180.03 222.9C180.03 210.5 177.463 200.767 172.33 193.7C167.196 186.633 159.563 183.1 149.43 183.1C142.03 183.1 136.096 184.7 131.63 187.9C127.163 191.033 123.896 195.567 121.83 201.5C119.83 207.433 118.796 214.567 118.73 222.9C118.73 237.967 121.096 248.867 125.83 255.6C130.563 262.267 138.563 265.6 149.83 265.6ZM251.884 170.6C259.018 170.6 265.484 171.933 271.284 174.6C277.084 177.267 281.884 181.1 285.684 186.1C289.484 191.033 291.918 197 292.984 204H278.684C278.018 200.133 276.518 196.667 274.184 193.6C271.851 190.467 268.784 188 264.984 186.2C261.251 184.4 256.918 183.5 251.984 183.5C242.584 183.5 234.918 186.867 228.984 193.6C223.118 200.267 220.184 210.567 220.184 224.5C220.184 236.967 222.851 246.967 228.184 254.5C233.584 261.967 241.584 265.7 252.184 265.7C257.118 265.7 261.451 264.8 265.184 263C268.984 261.133 272.051 258.667 274.384 255.6C276.718 252.467 278.184 249.033 278.784 245.3H292.884C291.884 252.1 289.451 257.967 285.584 262.9C281.718 267.767 276.884 271.5 271.084 274.1C265.351 276.7 258.951 278 251.884 278C242.684 278 234.551 276 227.484 272C220.418 268 214.884 262.033 210.884 254.1C206.951 246.167 204.984 236.333 204.984 224.6C204.984 213.867 206.784 204.467 210.384 196.4C213.984 188.267 219.251 181.933 226.184 177.4C233.184 172.867 241.751 170.6 251.884 170.6ZM357.45 217.9V230.6L307.75 230.7V218L357.45 217.9ZM417.773 310.2C402.107 310.2 389.807 307.833 380.873 303.1C372.007 298.433 367.573 291.567 367.573 282.5C367.573 278.7 368.407 275.467 370.073 272.8C371.807 270.067 373.84 267.8 376.173 266C378.573 264.2 380.807 262.767 382.873 261.7C384.94 260.567 386.307 259.733 386.973 259.2C385.773 258.467 384.373 257.633 382.773 256.7C381.173 255.7 379.773 254.433 378.573 252.9C377.44 251.3 376.873 249.267 376.873 246.8C376.873 243.667 378.34 240.8 381.273 238.2C384.207 235.533 388.573 233.533 394.373 232.2C388.507 229.133 383.873 225.133 380.473 220.2C377.14 215.2 375.473 209.733 375.473 203.8C375.473 197.133 377.173 191.333 380.573 186.4C384.04 181.467 389.04 177.667 395.573 175C402.107 172.333 410.04 171 419.373 171C425.973 171 431.573 171.8 436.173 173.4C440.773 174.933 445.04 177.2 448.973 180.2C449.973 179.733 451.573 179.033 453.773 178.1C456.04 177.167 458.54 176.167 461.273 175.1C464.007 173.967 466.54 172.9 468.873 171.9C471.273 170.9 473.073 170.133 474.273 169.6V185.2L456.073 188.8C457.207 191.067 458.107 193.533 458.773 196.2C459.44 198.8 459.773 201.3 459.773 203.7C459.773 209.833 458.24 215.367 455.173 220.3C452.107 225.167 447.44 229 441.173 231.8C434.973 234.6 427.14 236 417.673 236C417.007 236 416.173 236 415.173 236C414.173 236 413.307 235.967 412.573 235.9C404.64 236.1 399.173 237 396.173 238.6C393.24 240.133 391.773 241.767 391.773 243.5C391.773 245.5 393.273 246.933 396.273 247.8C399.273 248.6 404.507 249.267 411.973 249.8C414.707 249.933 417.973 250.1 421.773 250.3C425.64 250.5 429.94 250.767 434.673 251.1C445.007 251.7 453.04 254.367 458.773 259.1C464.573 263.833 467.473 270.367 467.473 278.7C467.473 287.967 463.373 295.533 455.173 301.4C447.04 307.267 434.573 310.2 417.773 310.2ZM420.673 299.5C430.607 299.5 438.34 297.933 443.873 294.8C449.407 291.733 452.173 287.033 452.173 280.7C452.173 276.3 450.54 272.7 447.273 269.9C444.007 267.033 439.073 265.367 432.473 264.9L401.973 263C399.507 262.867 396.807 263.567 393.873 265.1C390.94 266.567 388.407 268.667 386.273 271.4C384.207 274.133 383.173 277.233 383.173 280.7C383.173 286.567 386.207 291.167 392.273 294.5C398.407 297.833 407.873 299.5 420.673 299.5ZM418.173 225.4C426.107 225.4 432.507 223.6 437.373 220C442.307 216.4 444.773 211 444.773 203.8C444.773 196.4 442.307 190.8 437.373 187C432.507 183.2 426.107 181.3 418.173 181.3C410.04 181.3 403.473 183.233 398.473 187.1C393.54 190.9 391.073 196.467 391.073 203.8C391.073 210.667 393.407 216 398.073 219.8C402.807 223.533 409.507 225.4 418.173 225.4ZM525.981 278C516.648 278 508.448 276 501.381 272C494.381 267.933 488.948 261.933 485.081 254C481.215 246.067 479.281 236.3 479.281 224.7C479.281 213.9 481.048 204.433 484.581 196.3C488.181 188.167 493.448 181.867 500.381 177.4C507.315 172.867 515.881 170.6 526.081 170.6C535.415 170.6 543.515 172.667 550.381 176.8C557.315 180.867 562.681 186.933 566.481 195C570.348 203 572.281 212.9 572.281 224.7C572.281 235.233 570.548 244.5 567.081 252.5C563.615 260.5 558.448 266.767 551.581 271.3C544.781 275.767 536.248 278 525.981 278ZM526.081 265.4C532.548 265.4 538.048 263.8 542.581 260.6C547.181 257.4 550.681 252.733 553.081 246.6C555.548 240.467 556.781 233.033 556.781 224.3C556.781 216.433 555.715 209.4 553.581 203.2C551.448 197 548.115 192.133 543.581 188.6C539.048 185 533.215 183.2 526.081 183.2C519.481 183.2 513.848 184.8 509.181 188C504.581 191.133 501.048 195.767 498.581 201.9C496.115 208.033 494.881 215.5 494.881 224.3C494.881 232.167 495.948 239.2 498.081 245.4C500.281 251.533 503.681 256.4 508.281 260C512.881 263.6 518.815 265.4 526.081 265.4Z" fill="white"/>
<defs>
<clipPath id="clip0_1663_7449">
<rect width="205" height="122" fill="white" transform="translate(1015 419)"/>
</clipPath>
</defs>
</svg>
